<svg xmlns="http://www.w3.org/2000/svg" width="16" height="11" viewBox="0 0 16 11">
<defs>
    <style>
      .cls-1 {
        fill: #1fb6ff;
        fill-rule: evenodd;
      }
    </style>
  </defs>
  <path id="Envelope" class="cls-1" d="M363.75,445.007h-13a1.547,1.547,0,0,0-1.75,1.25v8a1.963,1.963,0,0,0,1.75,1.75h13a1.546,1.546,0,0,0,1.25-1.75v-8a1.109,1.109,0,0,0-1.25-1.25h0ZM357,452.555a0.5,0.5,0,0,1-.327-0.123l-7.5-6a0.5,0.5,0,0,1,.654-0.756L357,451.393l7.172-5.717a0.5,0.5,0,0,1,.656.756l-7.5,6A0.5,0.5,0,0,1,357,452.555Z" transform="translate(-349 -445)"/>
</svg>
