<svg xmlns="http://www.w3.org/2000/svg" width="16" height="18.938" viewBox="0 0 16 18.938">
  <metadata><?xpacket begin="﻿" id="W5M0MpCehiHzreSzNTczkc9d"?>
<x:xmpmeta xmlns:x="adobe:ns:meta/" x:xmptk="Adobe XMP Core 5.6-c138 79.159824, 2016/09/14-01:09:01        ">
   <rdf:RDF xmlns:rdf="http://www.w3.org/1999/02/22-rdf-syntax-ns#">
      <rdf:Description rdf:about=""/>
   </rdf:RDF>
</x:xmpmeta>
<?xpacket end="w"?></metadata>
<defs>
    <style>
      .cls-1 {
        fill: #d3dce6;
        fill-rule: evenodd;
      }
    </style>
  </defs>
  <path id="Lock_" data-name="Lock " class="cls-1" d="M361.308,522.008a0.6,0.6,0,0,1-.616-0.592v-2.26a3.692,3.692,0,0,0-7.384,0v2.26a0.616,0.616,0,0,1-1.231,0v-2.26a4.924,4.924,0,0,1,9.846,0v2.26A0.6,0.6,0,0,1,361.308,522.008Zm1.23,11.252H351.462A2.419,2.419,0,0,1,349,530.891v-7.106a2.419,2.419,0,0,1,2.462-2.369h11.076A2.419,2.419,0,0,1,365,523.785v7.106A2.419,2.419,0,0,1,362.538,533.26ZM357,524.969a1.185,1.185,0,1,1-1.231,1.184A1.209,1.209,0,0,1,357,524.969Zm0,1.184a0.6,0.6,0,0,1,.615.593v2.368a0.615,0.615,0,0,1-1.23,0v-2.368A0.6,0.6,0,0,1,357,526.153Z" transform="translate(-349 -514.312)"/>
</svg>
